<?xml version="1.0" encoding="UTF-8" standalone="no"?>
<!DOCTYPE svg PUBLIC "-//W3C//DTD SVG 20010904//EN"
              "http://www.w3.org/TR/2001/REC-SVG-20010904/DTD/svg10.dtd">

<svg xmlns="http://www.w3.org/2000/svg"
     width="16.6667in" height="8.40278in"
     viewBox="0 0 1200 605">
  <path id="Selection"
        fill="#60b0f4" stroke="none" stroke-width="1"
        d="M 318.00,503.00
           C 318.00,503.00 387.00,503.00 387.00,503.00
             390.39,502.98 394.00,503.20 395.98,499.85
             397.48,497.31 397.00,489.24 397.00,486.00
             397.00,486.00 397.00,453.00 397.00,453.00
             396.94,444.26 395.24,444.02 387.00,444.00
             387.00,444.00 291.00,444.00 291.00,444.00
             291.00,444.00 269.00,444.00 269.00,444.00
             266.86,444.04 264.23,443.96 262.60,445.60
             260.68,447.52 261.01,451.46 261.00,454.00
             261.00,454.00 261.00,566.00 261.00,566.00
             260.98,581.03 254.48,588.97 239.00,589.00
             239.00,589.00 79.00,589.00 79.00,589.00
             79.00,589.00 60.00,589.00 60.00,589.00
             48.31,589.00 35.18,590.16 30.80,576.00
             29.90,573.08 30.00,570.02 30.00,567.00
             30.00,567.00 30.00,319.00 30.00,319.00
             30.00,319.00 30.00,265.00 30.00,265.00
             30.08,250.04 38.93,244.02 53.00,244.00
             53.00,244.00 122.00,244.00 122.00,244.00
             126.37,244.00 140.60,245.25 142.98,241.69
             144.21,239.84 144.00,236.19 144.00,234.00
             144.00,234.00 144.00,56.00 144.00,56.00
             144.00,56.00 144.00,27.00 144.00,27.00
             144.01,21.15 144.31,16.05 147.85,11.04
             150.64,7.10 155.54,4.71 160.00,3.10
             163.48,1.85 165.41,2.01 169.00,2.00
             169.00,2.00 604.00,2.00 604.00,2.00
             604.00,2.00 711.00,2.00 711.00,2.00
             727.68,2.03 735.97,10.58 736.00,27.00
             736.00,27.00 736.00,158.00 736.00,158.00
             736.00,158.00 736.00,189.00 736.00,189.00
             736.02,191.35 735.81,194.61 737.60,196.40
             739.52,198.32 743.46,197.99 746.00,198.00
             746.00,198.00 1022.00,198.00 1022.00,198.00
             1022.00,198.00 1071.00,198.00 1071.00,198.00
             1077.82,198.00 1089.04,197.08 1095.00,199.92
             1104.38,204.38 1105.99,212.67 1106.00,222.00
             1106.00,222.00 1106.00,343.00 1106.00,343.00
             1106.00,343.00 1106.00,370.00 1106.00,370.00
             1106.01,372.54 1105.68,376.48 1107.60,378.40
             1109.52,380.32 1113.46,379.99 1116.00,380.00
             1116.00,380.00 1154.00,380.00 1154.00,380.00
             1159.61,380.00 1167.97,379.35 1173.00,381.53
             1182.92,385.84 1184.98,394.19 1185.00,404.00
             1185.00,404.00 1185.00,605.00 1185.00,605.00
             1185.00,605.00 1143.00,605.00 1143.00,605.00
             1140.22,604.99 1137.59,605.19 1135.00,604.00
             1132.02,602.62 1129.54,599.47 1125.00,599.29
             1120.00,599.10 1116.87,602.88 1114.58,604.05
             1112.25,605.24 1109.54,605.00 1107.00,605.00
             1107.00,605.00 563.00,605.00 563.00,605.00
             563.00,605.00 603.98,546.00 603.98,546.00
             606.85,541.84 617.41,527.66 618.49,524.00
             619.09,521.96 619.00,519.14 619.00,517.00
             619.00,517.00 619.00,454.00 619.00,454.00
             618.98,445.37 617.63,444.02 609.00,444.00
             609.00,444.00 513.00,444.00 513.00,444.00
             513.00,444.00 492.00,444.00 492.00,444.00
             489.27,444.05 486.53,444.03 484.60,446.31
             482.71,448.56 483.01,452.23 483.00,455.00
             483.00,455.00 483.00,488.00 483.00,488.00
             483.00,491.41 482.39,498.06 484.60,500.69
             486.87,503.38 490.82,502.99 494.00,503.00
             494.00,503.00 562.00,503.00 562.00,503.00
             562.00,503.00 562.00,529.00 562.00,529.00
             562.00,529.00 318.00,529.00 318.00,529.00
             318.00,529.00 318.00,503.00 318.00,503.00 Z
           M 165.31,22.60
           C 162.32,25.12 163.01,27.28 163.00,31.00
             163.00,31.00 163.00,67.00 163.00,67.00
             163.00,67.00 163.00,197.00 163.00,197.00
             163.00,197.00 163.00,230.00 163.00,230.00
             163.00,232.66 162.52,240.51 164.02,242.40
             165.59,244.38 169.70,244.00 172.00,244.00
             172.00,244.00 238.00,244.00 238.00,244.00
             254.11,244.20 260.98,253.74 261.00,269.00
             261.00,269.00 261.00,333.00 261.00,333.00
             261.00,336.68 260.05,350.96 262.60,352.98
             264.19,354.23 268.01,354.00 270.00,354.00
             270.00,354.00 522.00,354.00 522.00,354.00
             522.00,354.00 672.00,354.00 672.00,354.00
             672.00,354.00 703.00,354.00 703.00,354.00
             705.66,354.00 713.51,354.48 715.40,352.98
             717.38,351.41 717.00,347.30 717.00,345.00
             717.00,345.00 717.00,97.00 717.00,97.00
             717.00,97.00 717.00,41.00 717.00,41.00
             717.00,37.52 717.92,25.01 715.40,23.02
             713.81,21.77 709.99,22.00 708.00,22.00
             708.00,22.00 337.00,22.00 337.00,22.00
             337.00,22.00 221.00,22.00 221.00,22.00
             221.00,22.00 185.00,22.00 185.00,22.00
             179.72,22.00 170.03,21.46 165.31,22.60 Z
           M 738.31,217.60
           C 735.32,220.12 736.01,222.28 736.00,226.00
             736.00,226.00 736.00,266.00 736.00,266.00
             736.00,266.00 736.00,419.00 736.00,419.00
             735.79,436.94 726.11,443.97 709.00,444.00
             709.00,444.00 657.00,444.00 657.00,444.00
             653.61,444.00 642.00,443.10 640.02,445.60
             638.77,447.19 639.00,451.01 639.00,453.00
             639.00,453.00 639.00,507.00 639.00,507.00
             639.00,510.39 638.10,522.00 640.60,523.98
             642.19,525.23 646.01,525.00 648.00,525.00
             648.00,525.00 967.00,525.00 967.00,525.00
             967.00,525.00 1041.00,525.00 1041.00,525.00
             1041.00,525.00 1057.00,525.00 1057.00,525.00
             1058.95,524.96 1061.63,525.10 1062.98,523.40
             1064.23,521.81 1064.00,517.99 1064.00,516.00
             1064.00,516.00 1064.00,404.00 1064.00,404.00
             1064.09,396.66 1065.99,389.30 1072.04,384.56
             1078.04,379.85 1084.05,380.89 1085.98,378.41
             1087.24,376.78 1087.00,373.01 1087.00,371.00
             1087.00,371.00 1087.00,253.00 1087.00,253.00
             1087.00,253.00 1087.00,226.00 1087.00,226.00
             1087.00,224.01 1087.23,220.19 1085.98,218.60
             1084.41,216.62 1080.30,217.00 1078.00,217.00
             1078.00,217.00 847.00,217.00 847.00,217.00
             847.00,217.00 774.00,217.00 774.00,217.00
             774.00,217.00 738.31,217.60 738.31,217.60 Z
           M 51.31,263.60
           C 47.46,266.85 49.00,274.32 49.00,279.00
             49.00,279.00 49.00,319.00 49.00,319.00
             49.00,319.00 49.00,483.00 49.00,483.00
             49.00,483.00 49.00,534.00 49.00,534.00
             49.06,542.13 50.27,541.98 58.00,542.00
             58.00,542.00 199.00,542.00 199.00,542.00
             199.00,542.00 229.00,542.00 229.00,542.00
             231.54,542.00 238.55,542.44 240.40,540.98
             242.38,539.41 242.00,535.30 242.00,533.00
             242.00,533.00 242.00,326.00 242.00,326.00
             242.00,326.00 242.00,272.00 242.00,272.00
             241.98,263.36 241.64,263.02 233.00,263.00
             233.00,263.00 110.00,263.00 110.00,263.00
             110.00,263.00 72.00,263.00 72.00,263.00
             66.63,263.00 56.04,262.45 51.31,263.60 Z
           M 1103.15,387.60
           C 1095.88,392.74 1104.20,394.97 1109.00,395.00
             1109.00,395.00 1139.00,395.00 1139.00,395.00
             1141.15,395.00 1144.88,395.21 1146.68,393.98
             1147.71,393.28 1148.37,392.28 1148.37,391.00
             1148.37,387.15 1143.73,387.05 1141.00,387.00
             1141.00,387.00 1103.15,387.60 1103.15,387.60 Z
           M 401.02,388.14
           C 395.66,390.66 392.82,396.17 398.23,400.26
             400.90,402.29 404.81,401.99 408.00,402.00
             408.00,402.00 472.00,402.00 472.00,402.00
             475.24,401.99 479.10,402.28 481.85,400.26
             486.45,396.90 485.30,390.86 479.98,388.74
             477.80,387.87 474.37,388.00 472.00,388.14
             472.00,388.14 426.00,388.14 426.00,388.14
             426.00,388.14 401.02,388.14 401.02,388.14 Z
           M 1075.31,402.60
           C 1072.49,404.98 1073.02,406.43 1073.00,410.00
             1073.00,410.00 1073.00,441.00 1073.00,441.00
             1073.00,441.00 1073.00,554.00 1073.00,554.00
             1073.00,554.00 1073.00,585.00 1073.00,585.00
             1073.00,586.99 1072.77,590.81 1074.02,592.40
             1075.59,594.38 1079.70,594.00 1082.00,594.00
             1082.00,594.00 1153.00,594.00 1153.00,594.00
             1153.00,594.00 1169.00,594.00 1169.00,594.00
             1170.95,593.96 1173.63,594.10 1174.98,592.40
             1176.23,590.81 1176.00,586.99 1176.00,585.00
             1176.00,585.00 1176.00,445.00 1176.00,445.00
             1176.00,445.00 1176.00,415.00 1176.00,415.00
             1176.00,412.46 1176.44,405.45 1174.98,403.60
             1173.41,401.62 1169.30,402.00 1167.00,402.00
             1167.00,402.00 1106.00,402.00 1106.00,402.00
             1099.50,402.00 1080.38,401.37 1075.31,402.60 Z
           M 670.10,551.81
           C 667.46,553.23 661.16,560.95 664.64,563.98
             666.21,565.34 671.86,565.01 674.00,565.00
             680.37,564.96 682.17,564.28 684.52,558.00
             685.38,556.14 686.23,553.55 684.52,551.81
             682.18,550.19 672.89,550.98 670.10,551.81 Z
           M 694.21,551.81
           C 691.58,553.37 686.22,561.05 689.64,563.98
             691.23,565.34 696.84,565.01 699.00,565.00
             705.51,564.96 706.98,564.46 709.37,558.00
             710.04,556.21 711.11,553.54 709.37,551.81
             707.25,550.20 696.97,550.96 694.21,551.81 Z
           M 719.27,551.81
           C 716.76,553.47 712.38,561.29 715.61,563.98
             717.26,565.34 722.80,565.01 725.00,565.00
             727.02,564.99 729.85,565.13 731.58,563.98
             734.08,562.32 737.16,554.31 734.39,551.81
             732.19,550.21 722.08,550.93 719.27,551.81 Z
           M 744.22,551.81
           C 741.53,553.49 737.19,561.15 740.61,563.98
             742.27,565.34 747.79,565.01 750.00,565.00
             756.38,564.96 758.25,564.67 759.61,558.00
             760.30,556.17 761.04,553.45 759.61,551.81
             757.22,550.20 747.00,550.95 744.22,551.81 Z
           M 769.22,551.81
           C 766.33,553.67 763.03,561.13 766.60,563.98
             768.31,565.34 773.75,565.01 776.00,565.00
             777.90,564.99 780.86,565.15 782.44,563.98
             784.67,562.33 786.84,554.04 784.39,551.81
             782.17,550.20 772.05,550.94 769.22,551.81 Z
           M 793.30,551.81
           C 790.50,553.81 788.21,561.30 791.60,563.98
             793.32,565.34 798.74,565.01 801.00,565.00
             802.90,564.99 805.86,565.15 807.44,563.98
             809.98,562.10 811.04,554.11 808.40,551.81
             806.12,550.22 796.16,550.91 793.30,551.81 Z
           M 818.15,551.81
           C 817.61,551.97 816.94,551.94 816.02,553.31
             814.60,555.45 814.42,562.26 816.60,563.98
             818.32,565.34 823.74,565.01 826.00,565.00
             827.84,564.99 830.90,565.15 832.41,563.98
             834.63,562.25 835.82,553.95 833.40,551.81
             831.10,550.19 821.05,550.94 818.15,551.81 Z
           M 843.31,551.81
           C 840.71,553.80 839.59,561.59 842.60,563.98
             844.32,565.34 849.74,565.01 852.00,565.00
             853.82,564.99 856.93,565.15 858.40,563.98
             860.65,562.20 860.65,553.80 858.40,551.81
             856.12,550.22 846.17,550.91 843.31,551.81 Z
           M 867.31,551.81
           C 864.50,553.97 863.55,562.55 867.31,564.40
             868.99,565.22 874.89,565.01 877.00,565.00
             878.82,564.99 881.92,565.15 883.40,563.98
             885.65,562.20 885.65,553.80 883.40,551.81
             881.11,550.21 870.23,550.89 867.31,551.81 Z
           M 892.44,551.81
           C 889.30,554.14 889.17,561.47 892.44,563.98
             894.40,565.34 899.64,565.01 902.00,565.00
             903.82,564.99 906.93,565.15 908.40,563.98
             911.04,561.89 909.98,553.90 907.44,551.81
             905.01,550.22 895.27,550.88 892.44,551.81 Z
           M 918.31,551.81
           C 917.98,551.88 917.25,551.92 916.61,553.31
             915.45,555.84 916.63,563.09 919.31,564.40
             921.00,565.22 926.88,565.01 929.00,565.00
             930.74,564.99 933.99,565.15 935.36,563.98
             937.68,562.01 935.77,553.65 933.49,551.81
             930.98,550.23 921.33,550.87 918.31,551.81 Z
           M 942.33,551.81
           C 942.05,551.85 941.27,551.92 940.77,553.31
             939.86,555.86 941.68,563.16 944.30,564.40
             946.03,565.22 951.84,565.01 954.00,565.00
             955.73,564.99 958.99,565.15 960.36,563.98
             962.90,561.82 960.15,553.60 957.70,551.81
             955.08,550.33 945.41,550.85 942.33,551.81 Z
           M 967.32,551.81
           C 967.05,551.83 966.23,551.94 965.69,553.31
             964.68,555.87 966.69,563.16 969.30,564.40
             971.03,565.22 976.84,565.01 979.00,565.00
             980.73,564.99 984.00,565.14 985.36,563.98
             987.82,561.87 984.72,553.59 982.49,551.81
             980.05,550.30 970.27,550.88 967.32,551.81 Z
           M 992.33,551.81
           C 989.03,554.60 991.70,561.76 995.27,563.98
             997.44,565.32 1002.39,565.02 1005.00,565.00
             1006.73,564.99 1010.00,565.14 1011.36,563.98
             1014.13,561.61 1010.22,553.57 1007.73,551.81
             1005.01,550.34 995.48,550.83 992.33,551.81 Z
           M 1017.32,551.81
           C 1013.82,554.67 1016.49,561.73 1020.22,563.98
             1022.45,565.32 1027.35,565.02 1030.00,565.00
             1031.71,564.99 1035.02,565.14 1036.36,563.98
             1038.90,561.77 1034.83,553.51 1032.59,551.81
             1030.01,550.32 1020.37,550.86 1017.32,551.81 Z
           M 1042.31,551.60
           C 1038.52,554.85 1041.33,561.69 1045.21,563.98
             1047.48,565.32 1052.31,565.02 1055.00,565.00
             1056.71,564.99 1060.02,565.14 1061.36,563.98
             1064.06,561.63 1059.71,554.29 1057.61,552.60
             1054.68,550.24 1045.87,550.74 1042.31,551.60 Z
           M 139.00,552.43
           C 123.45,558.56 127.43,578.53 144.00,578.98
             148.34,579.11 152.27,579.08 155.91,576.35
             163.96,570.31 163.45,559.14 154.98,553.74
             151.17,551.31 143.38,551.76 139.00,552.43 Z
           M 749.27,573.60
           C 746.45,575.71 742.05,585.11 745.60,587.98
             747.16,589.23 751.04,589.00 753.00,589.00
             753.00,589.00 799.00,589.00 799.00,589.00
             799.00,589.00 972.00,589.00 972.00,589.00
             973.96,589.00 977.84,589.23 979.40,587.98
             982.38,585.58 979.34,575.85 976.58,574.02
             974.71,572.78 971.21,573.00 969.00,573.00
             969.00,573.00 820.00,573.00 820.00,573.00
             820.00,573.00 773.00,573.00 773.00,573.00
             767.25,573.00 754.16,572.44 749.27,573.60 Z" />
</svg>
